<svg width="59" height="59" viewBox="0 0 59 59" fill="none" xmlns="http://www.w3.org/2000/svg">
    <g filter="url(#filter0_d_linkedin)">
      <path d="M29.24 49.48C42.0751 49.48 52.48 39.0751 52.48 26.24C52.48 13.4049 42.0751 3 29.24 3C16.4049 3 6 13.4049 6 26.24C6 39.0751 16.4049 49.48 29.24 49.48Z" fill="white"/>
    </g>
  
    <!-- LinkedIn logo centered -->
    <g transform="translate(17 17)" fill="#009688">
      <path d="M4 6H8V21H4V6Z"/>
      <path d="M6 0C4.34 0 3 1.34 3 3C3 4.66 4.34 6 6 6C7.66 6 9 4.66 9 3C9 1.34 7.66 0 6 0Z"/>
      <path d="M24 12.6C24 8.9 22 6 18.4 6C16.4 6 15.1 7 14.6 8V6H10V21H14.6V13.8C14.6 11.9 15 10.4 16.9 10.4C18.7 10.4 18.8 12.1 18.8 13.9V21H24V12.6Z"/>
    </g>
  
    <defs>
      <filter id="filter0_d_linkedin" x="0" y="0" width="58.48" height="58.48" filterUnits="userSpaceOnUse" color-interpolation-filters="sRGB">
        <feFlood flood-opacity="0" result="BackgroundImageFix"/>
        <feColorMatrix in="SourceAlpha" type="matrix"
          values="0 0 0 0 0
                  0 0 0 0 0
                  0 0 0 0 0
                  0 0 0 127 0"/>
        <feOffset dy="3"/>
        <feGaussianBlur stdDeviation="3"/>
        <feColorMatrix type="matrix"
          values="0 0 0 0 0
                  0 0 0 0 0
                  0 0 0 0 0
                  0 0 0 0.16 0"/>
        <feBlend mode="normal" in2="BackgroundImageFix" result="effect1_dropShadow"/>
        <feBlend mode="normal" in="SourceGraphic" in2="effect1_dropShadow" result="shape"/>
      </filter>
    </defs>
  </svg>
  