<svg width="220" height="48" viewBox="0 0 220 48" fill="none" xmlns="http://www.w3.org/2000/svg">

  <!-- ICON -->
  <g transform="translate(0,4)">
    <path d="M19.9994 0.21875C31.0454 0.21875 39.9994 9.17275 39.9994 20.2188V34.2188C39.9994 35.81 39.3673 37.3362 38.2421 38.4614C37.1169 39.5866 35.5907 40.2188 33.9994 40.2188H20.9994V31.4447C20.9994 29.4427 21.1214 27.3687 22.1714 25.6647C22.9232 24.4436 23.9288 23.3984 25.12 22.6C26.3112 21.8017 27.6602 21.2689 29.0754 21.0378L29.4584 20.9757C29.6163 20.9218 29.7534 20.8198 29.8505 20.684C29.9475 20.5483 29.9997 20.3856 29.9997 20.2188C29.9997 20.0519 29.9475 19.8892 29.8505 19.7535C29.7534 19.6177 29.6163 19.5157 29.4584 19.4618L29.0754 19.3997C27.0076 19.062 25.0981 18.0832 23.6166 16.6016C22.135 15.1201 21.1562 13.2106 20.8184 11.1427L20.7564 10.7598C20.7025 10.6019 20.6005 10.4648 20.4647 10.3677C20.329 10.2707 20.1663 10.2185 19.9994 10.2185C19.8326 10.2185 19.6699 10.2707 19.5341 10.3677C19.3984 10.4648 19.2964 10.6019 19.2424 10.7598L19.1804 11.1427C18.9494 12.558 18.4166 13.907 17.6182 15.0983C16.8199 16.2895 15.7746 17.2951 14.5534 18.0467C12.8494 19.0967 10.7754 19.2188 8.77344 19.2188H0.0234375C0.546438 8.63775 9.28944 0.21875 19.9994 0.21875Z"
      fill="#009688"/>

    <path d="M0 21.2188H8.774C10.776 21.2188 12.85 21.3408 14.554 22.3908C15.886 23.2115 17.0072 24.3328 17.828 25.6647C18.878 27.3687 19 29.4427 19 31.4447V40.2188H6C4.4087 40.2188 2.88258 39.5866 1.75736 38.4614C0.632141 37.3362 0 35.81 0 34.2188L0 21.2188Z"
      fill="#009688"/>
  </g>

  <!-- TEXT -->
  <text
    x="56"
    y="39"
    font-size="35"
    font-weight="800"
    font-family= "Outfit, sans-serif"
    fill="#111827"
    letter-spacing="0.5">
    Blogify
  </text>

</svg>
